<?xml version="1.0" encoding="utf-8"?>
<!-- Generator: Adobe Illustrator 19.0.0, SVG Export Plug-In . SVG Version: 6.00 Build 0)  -->
<svg version="1.1" id="Layer_1" xmlns="http://www.w3.org/2000/svg" xmlns:xlink="http://www.w3.org/1999/xlink" x="0px" y="0px"
	 viewBox="0 0 180.5 12" style="enable-background:new 0 0 180.5 12;" xml:space="preserve">
<style type="text/css">
	.st0{fill:#FFFFFF;}
	.st1{fill:#40C4FF;}
</style>
<g>
	<line class="st0" x1="127" y1="-7809" x2="127" y2="8574"/>
</g>
<circle class="st1" cx="1" cy="5.8" r="1.2"/>
<circle class="st1" cx="4.9" cy="2.3" r="1.2"/>
<circle class="st1" cx="8.7" cy="4.5" r="1.2"/>
<circle class="st1" cx="12.6" cy="1.2" r="1.2"/>
<path class="st1" d="M1.3,8.2H0.8c-0.2,0-0.4,0.2-0.4,0.4v3c0,0.2,0.2,0.4,0.4,0.4h0.5c0.2,0,0.4-0.2,0.4-0.4v-3
	C1.7,8.3,1.5,8.2,1.3,8.2z"/>
<path class="st1" d="M5.1,4.6H4.6C4.4,4.6,4.2,4.8,4.2,5v6.5c0,0.2,0.2,0.4,0.4,0.4h0.5c0.2,0,0.4-0.2,0.4-0.4V5
	C5.5,4.8,5.4,4.6,5.1,4.6z"/>
<path class="st1" d="M9,6.4H8.5c-0.2,0-0.4,0.2-0.4,0.4v4.8c0,0.2,0.2,0.4,0.4,0.4H9c0.2,0,0.4-0.2,0.4-0.4V6.8
	C9.4,6.5,9.2,6.4,9,6.4z"/>
<path class="st1" d="M12.8,3.3l-0.5,0c-0.2,0-0.4,0.2-0.4,0.4v7.8c0,0.2,0.2,0.4,0.4,0.4h0.5c0.2,0,0.4-0.2,0.4-0.4V3.7
	C13.2,3.5,13.1,3.3,12.8,3.3z"/>
<path class="st1" d="M1.6,5.5L1.4,5.2C1.3,5.1,1.3,5,1.4,4.9l2.5-2.2c0.1-0.1,0.3-0.1,0.3,0L4.4,3c0.1,0.1,0.1,0.3,0,0.3L1.9,5.5
	C1.8,5.6,1.6,5.6,1.6,5.5z"/>
<path class="st1" d="M5.2,2.5l0.2-0.3c0.1-0.1,0.2-0.1,0.3-0.1L8.5,4c0.1,0.1,0.1,0.2,0.1,0.3L8.4,4.6C8.3,4.7,8.2,4.8,8.1,4.7
	L5.3,2.9C5.2,2.8,5.1,2.7,5.2,2.5z"/>
<path class="st1" d="M9.3,4.3L9.1,4c-0.1-0.1-0.1-0.3,0-0.3l2.5-2.2c0.1-0.1,0.3-0.1,0.3,0l0.2,0.2c0.1,0.1,0.1,0.3,0,0.3L9.7,4.3
	C9.6,4.4,9.4,4.4,9.3,4.3z"/>
<g>
	<path class="st0" d="M27,1.1c0.7,0.7,1.1,1.6,1.1,2.7c0,1.2-0.4,2.1-1.1,2.7c-0.8,0.7-1.8,1-3.1,1h-2.6v4.5h-1.9V0.1h4.6
		C25.2,0.1,26.2,0.4,27,1.1z M25.5,5.3c0.4-0.3,0.6-0.9,0.6-1.5c0-1.4-0.8-2.1-2.5-2.1h-2.3v4.1h2.3C24.5,5.8,25.1,5.7,25.5,5.3z"/>
	<path class="st0" d="M37.8,11.3c-0.9,0.6-1.9,0.9-3.1,0.9c-1.1,0-2.1-0.2-3-0.7c-0.8-0.5-1.5-1.2-1.9-2.1c-0.5-0.9-0.7-2-0.7-3.3
		s0.2-2.3,0.7-3.3c0.5-0.9,1.1-1.6,1.9-2.1c0.8-0.5,1.8-0.7,3-0.7c1.2,0,2.2,0.2,3,0.7c0.8,0.5,1.4,1.2,1.8,2.2l-1.8,0.8
		c-0.2-0.7-0.6-1.2-1-1.6c-0.5-0.3-1.1-0.5-1.8-0.5c-1.1,0-2,0.4-2.7,1.2c-0.7,0.8-1,1.9-1,3.3c0,1.4,0.3,2.5,1,3.3
		c0.6,0.8,1.5,1.2,2.6,1.2c0.8,0,1.4-0.2,1.9-0.6c0.5-0.4,0.9-0.9,1.1-1.7l1.8,0.6C39.3,9.9,38.7,10.7,37.8,11.3z"/>
	<path class="st0" d="M51.3,5.8v6.1h-1.4l-0.1-1.5c-0.3,0.5-0.8,1-1.4,1.3c-0.6,0.3-1.3,0.4-2.2,0.4c-1.1,0-2.1-0.2-2.9-0.7
		c-0.8-0.5-1.5-1.2-1.9-2.1c-0.5-0.9-0.7-2-0.7-3.3c0-1.2,0.2-2.3,0.7-3.2c0.5-0.9,1.1-1.6,2-2.1s1.8-0.7,3-0.7c1.2,0,2.2,0.2,3,0.7
		s1.4,1.2,1.9,2.1l-1.8,0.8c-0.2-0.6-0.6-1.1-1.2-1.5s-1.2-0.5-1.9-0.5c-1.1,0-2,0.4-2.7,1.2c-0.7,0.8-1,1.9-1,3.3
		c0,1.4,0.3,2.5,0.9,3.3c0.6,0.8,1.6,1.2,2.8,1.2c0.9,0,1.7-0.2,2.3-0.7c0.6-0.5,0.9-1.1,0.9-2V7.4H46V5.8H51.3z"/>
	<path class="st0" d="M61.8,10.6l-0.1,1.3c-0.3,0.1-0.7,0.2-1.1,0.2c-0.5,0-0.9-0.1-1.2-0.3s-0.5-0.5-0.6-1c-0.3,0.4-0.7,0.7-1.2,1
		c-0.5,0.2-1.1,0.4-1.8,0.4c-0.9,0-1.6-0.2-2.1-0.6c-0.5-0.4-0.8-1-0.8-1.7c0-0.7,0.3-1.3,0.9-1.8c0.6-0.5,1.5-0.8,2.6-1l2.3-0.4
		V6.1c0-0.6-0.2-1-0.5-1.3c-0.3-0.3-0.8-0.5-1.4-0.5c-1.2,0-2,0.5-2.3,1.6l-1.5-0.8c0.2-0.7,0.7-1.3,1.3-1.7s1.5-0.6,2.5-0.6
		c1.2,0,2.1,0.3,2.8,0.8s1,1.3,1,2.4V10c0,0.2,0.1,0.4,0.2,0.5s0.3,0.2,0.5,0.2C61.4,10.7,61.6,10.7,61.8,10.6z M57.8,10.2
		c0.5-0.3,0.7-0.7,0.7-1.2V7.9l-2,0.4c-0.6,0.1-1.1,0.3-1.4,0.5c-0.3,0.2-0.5,0.5-0.5,0.9c0,0.3,0.1,0.6,0.4,0.8
		c0.2,0.2,0.6,0.3,1,0.3C56.7,10.7,57.3,10.5,57.8,10.2z"/>
	<path class="st0" d="M75.3,3.1c0.5,0.2,0.9,0.6,1.2,1.1C76.8,4.8,77,5.4,77,6.1v5.8H75V6.4c0-0.7-0.2-1.2-0.5-1.6s-0.8-0.5-1.4-0.5
		c-0.7,0-1.2,0.2-1.7,0.7c-0.4,0.5-0.7,1.1-0.7,2v4.9h-1.9V6.4c0-0.7-0.2-1.2-0.5-1.6s-0.8-0.5-1.4-0.5c-0.4,0-0.8,0.1-1.1,0.3
		c-0.4,0.2-0.7,0.5-0.9,0.9c-0.2,0.4-0.3,0.9-0.3,1.6v4.8h-1.9v-9h1.7l0.1,1.5c0.3-0.6,0.7-1,1.2-1.3c0.5-0.3,1.1-0.4,1.7-0.4
		c0.7,0,1.3,0.2,1.8,0.5c0.5,0.3,1,0.8,1.2,1.3c0.3-0.6,0.7-1,1.3-1.3c0.6-0.3,1.2-0.5,1.8-0.5C74.3,2.8,74.8,2.9,75.3,3.1z"/>
	<path class="st0" d="M87.1,8.2h-6.6c0.1,0.8,0.4,1.4,0.8,1.8c0.5,0.4,1,0.6,1.8,0.6c0.6,0,1.1-0.1,1.5-0.3c0.4-0.2,0.7-0.5,0.8-0.9
		L87,10c-0.7,1.4-2,2.1-3.9,2.1c-1.4,0-2.5-0.4-3.3-1.2c-0.8-0.8-1.2-2-1.2-3.4C78.6,6,79,4.8,79.7,4c0.8-0.8,1.8-1.2,3.2-1.2
		c1.3,0,2.3,0.4,3.1,1.2c0.7,0.8,1.1,1.9,1.1,3.2C87.1,7.5,87.1,7.9,87.1,8.2z M81.3,4.9c-0.4,0.4-0.7,1-0.8,1.8h4.9
		c-0.1-0.8-0.4-1.3-0.8-1.8c-0.4-0.4-1-0.6-1.6-0.6C82.3,4.3,81.7,4.5,81.3,4.9z"/>
	<path class="st0" d="M88.9,0.1h4.7c1.4,0,2.4,0.3,3.1,0.8c0.7,0.6,1,1.4,1,2.4c0,0.6-0.2,1.2-0.6,1.7c-0.4,0.5-0.9,0.8-1.6,0.9v0
		c0.7,0.1,1.3,0.4,1.8,0.9C97.8,7.4,98,8,98,8.7c0,1-0.4,1.8-1.1,2.4c-0.8,0.6-1.8,0.9-3.2,0.9h-4.8V0.1z M93.5,5.2
		c1.5,0,2.3-0.6,2.3-1.7c0-1.2-0.8-1.7-2.3-1.7h-2.6v3.5H93.5z M93.8,10.3c0.7,0,1.3-0.2,1.7-0.5S96,9.1,96,8.6c0-0.6-0.2-1-0.6-1.3
		s-0.9-0.5-1.7-0.5h-3v3.6H93.8z"/>
	<path class="st0" d="M107.8,8.2h-6.6c0.1,0.8,0.4,1.4,0.8,1.8c0.5,0.4,1,0.6,1.8,0.6c0.6,0,1.1-0.1,1.5-0.3
		c0.4-0.2,0.7-0.5,0.8-0.9l1.6,0.7c-0.7,1.4-2,2.1-3.9,2.1c-1.4,0-2.5-0.4-3.3-1.2c-0.8-0.8-1.2-2-1.2-3.4c0-1.5,0.4-2.6,1.2-3.4
		c0.8-0.8,1.8-1.2,3.2-1.2c1.3,0,2.3,0.4,3.1,1.2c0.7,0.8,1.1,1.9,1.1,3.2C107.8,7.5,107.8,7.9,107.8,8.2z M102,4.9
		c-0.4,0.4-0.7,1-0.8,1.8h4.9c-0.1-0.8-0.4-1.3-0.8-1.8c-0.4-0.4-1-0.6-1.6-0.6C103,4.3,102.4,4.5,102,4.9z"/>
	<path class="st0" d="M116.7,3.6c0.6,0.6,0.9,1.4,0.9,2.5v5.8h-1.9V6.7c0-1.6-0.6-2.4-1.9-2.4c-0.7,0-1.2,0.2-1.7,0.7
		c-0.5,0.5-0.7,1.2-0.7,2.1v4.8h-1.9v-9h1.7l0.1,1.5c0.3-0.6,0.7-1,1.2-1.3c0.5-0.3,1.1-0.4,1.8-0.4C115.3,2.8,116.1,3.1,116.7,3.6z
		"/>
	<path class="st0" d="M127.7,5.3L125.9,6c-0.3-1.1-1-1.7-2.1-1.7c-0.8,0-1.4,0.3-1.9,0.8c-0.4,0.6-0.7,1.3-0.7,2.3
		c0,1,0.2,1.8,0.7,2.3c0.4,0.5,1.1,0.8,1.9,0.8c0.6,0,1.1-0.1,1.5-0.4c0.4-0.3,0.6-0.7,0.7-1.3l1.8,0.6c-0.3,0.8-0.7,1.5-1.4,2
		s-1.5,0.7-2.5,0.7c-1.4,0-2.5-0.4-3.3-1.2c-0.8-0.8-1.2-2-1.2-3.4c0-1.5,0.4-2.6,1.2-3.4s1.9-1.2,3.3-1.2
		C125.7,2.8,127,3.6,127.7,5.3z"/>
	<path class="st0" d="M136.5,3.6c0.6,0.6,0.9,1.4,0.9,2.5v5.8h-1.9V6.7c0-1.6-0.6-2.4-1.9-2.4c-0.7,0-1.2,0.2-1.7,0.7
		c-0.5,0.5-0.7,1.2-0.7,2.1v4.8h-1.9v-13h1.9v5.5c0.3-0.6,0.7-1,1.2-1.2c0.5-0.3,1.1-0.4,1.7-0.4C135,2.8,135.9,3.1,136.5,3.6z"/>
	<path class="st0" d="M152.1,3.1c0.5,0.2,0.9,0.6,1.2,1.1c0.3,0.5,0.5,1.1,0.5,1.9v5.8h-1.9V6.4c0-0.7-0.2-1.2-0.5-1.6
		s-0.8-0.5-1.4-0.5c-0.7,0-1.2,0.2-1.7,0.7c-0.4,0.5-0.7,1.1-0.7,2v4.9h-1.9V6.4c0-0.7-0.2-1.2-0.5-1.6s-0.8-0.5-1.4-0.5
		c-0.4,0-0.8,0.1-1.1,0.3c-0.4,0.2-0.7,0.5-0.9,0.9c-0.2,0.4-0.3,0.9-0.3,1.6v4.8h-1.9v-9h1.7l0.1,1.5c0.3-0.6,0.7-1,1.2-1.3
		c0.5-0.3,1.1-0.4,1.7-0.4c0.7,0,1.3,0.2,1.8,0.5c0.5,0.3,1,0.8,1.2,1.3c0.3-0.6,0.7-1,1.3-1.3c0.6-0.3,1.2-0.5,1.8-0.5
		C151,2.8,151.6,2.9,152.1,3.1z"/>
	<path class="st0" d="M164.3,10.6l-0.1,1.3c-0.3,0.1-0.7,0.2-1.1,0.2c-0.5,0-0.9-0.1-1.2-0.3s-0.5-0.5-0.6-1c-0.3,0.4-0.7,0.7-1.2,1
		c-0.5,0.2-1.1,0.4-1.8,0.4c-0.9,0-1.6-0.2-2.1-0.6c-0.5-0.4-0.8-1-0.8-1.7c0-0.7,0.3-1.3,0.9-1.8c0.6-0.5,1.5-0.8,2.6-1l2.3-0.4
		V6.1c0-0.6-0.2-1-0.5-1.3c-0.3-0.3-0.8-0.5-1.4-0.5c-1.2,0-2,0.5-2.3,1.6l-1.5-0.8c0.2-0.7,0.7-1.3,1.3-1.7s1.5-0.6,2.5-0.6
		c1.2,0,2.1,0.3,2.8,0.8s1,1.3,1,2.4V10c0,0.2,0.1,0.4,0.2,0.5s0.3,0.2,0.5,0.2C163.9,10.7,164.1,10.7,164.3,10.6z M160.3,10.2
		c0.5-0.3,0.7-0.7,0.7-1.2V7.9l-2,0.4c-0.6,0.1-1.1,0.3-1.4,0.5c-0.3,0.2-0.5,0.5-0.5,0.9c0,0.3,0.1,0.6,0.4,0.8
		c0.2,0.2,0.6,0.3,1,0.3C159.2,10.7,159.8,10.5,160.3,10.2z"/>
	<path class="st0" d="M170.9,2.9l-0.3,1.8c-0.3-0.2-0.7-0.2-1.1-0.2c-0.4,0-0.7,0.1-1.1,0.3c-0.3,0.2-0.6,0.5-0.8,0.9
		c-0.2,0.4-0.3,0.9-0.3,1.5v4.8h-1.9v-9h1.6l0.2,1.6c0.5-1.2,1.5-1.8,2.8-1.8C170.4,2.8,170.7,2.8,170.9,2.9z"/>
	<path class="st0" d="M175.7,7.7l-1.8,1.8v2.4H172v-13h1.9v8.5l4.3-4.4h2.3L177,6.5l3.7,5.5h-2.2L175.7,7.7z"/>
</g>
</svg>
